# xmcd
#
# Track frame offsets:
#	150
#	14705
#	30775
#	44715
#	61742
#	74640
#	90541
#	105275
#	118818
#	132792
#	148055
#	158450
#	175051
#	189851
#	204951
#	218921
#	229643
#	242219
#	255658
#	270007
#
# Disc length: 3785 seconds
#
# Revision: 0
# Processed by: cddbd v1.5.2PL0 Copyright (c) Steve Scherf et al.
# Submitted via: EasyCDDAExtractor 16.0.6.1
#
DISCID=090ec714
DTITLE=Συλλογικός δίσκος - Όλα τα ρεμπέτικα 05
DYEAR=2008
DGENRE=Ρεμπέτικη
TTITLE0=Μπέλλου Σωτηρία - Καϋμό μέσ' στην καρδούλα μου [Κώστας Σκαρβέλης]
TTITLE1=Ζαγοραίος Σπύρος - Στου Λινάρδου την ταβέρνα [Παναγιώτης Τούντας]
TTITLE2=Γλυκερία - Θεσσαλονίκη μου [Μανώλης Χιώτης-Χρήστος Κολοκοτρώνης]
TTITLE3=Καζαντζίδης Στέλιος - Το παλιόσπιτο [Βασίλης Τσιτσάνης]
TTITLE4=Γκολές Μπάμπης - Καροτσέρη, τράβα [Απόστολος Χατζηχρήστος]
TTITLE5=Μαριώ-Μητρέντζης Χρήστος - Η λιτανεία του μάγκα [Βασίλης Τσιτσάνης]
TTITLE6=Ιακωβίδης Αγάθωνας - Η Ελένη η ζωντοχήρα [Γιάννης Εϊτζιρίδης ή Γιοβάν 
TTITLE6=Τσαούς]
TTITLE7=Τσαουσάκης Πρόδρομος - Άδικα με κατακρίνουν [Μάρκος Βαμβακάρης-Κώστας 
TTITLE7=Μακρής]
TTITLE8=Μουφλουζέλης Γιώργος - Το σακάκι [Γιώργος Μουφλουζέλης]
TTITLE9=Γκόγκος Δημήτρης ή Μπαγιαντέρας - Νυχτερίδα [Δημήτρης Γκόγκος]
TTITLE10=Κοντογιάννης Δημήτρης - Δώδεκα χρονώ κορίτσι [Σωτήρης Γαβαλάς]
TTITLE11=Κανά Μελίνα - Ξεφάντωμα [Βασίλης Τσιτσάνης]
TTITLE12=Νταράλας Λουκάς - Σκολοπάτι-σκαλοπάτι [Γιώργος Λαύκας-Χαράλαμπος Βασι
TTITLE12=λειάδης]
TTITLE13=Ρούκουνας Κώστας ή Σαμιωτάκης - Γιαγκίνι [Κώστας Ρούκουνας]
TTITLE14=Ευσταθίου Δημήτρης - Ο ξεμάγκας [Βαγγέλης Παπάζογλου]
TTITLE15=Γενίτσαρης Μιχάλης - Είμαι βέρος Πειραιώτης [Μιχάλης Γενίτσαρης]
TTITLE16=Κιουπρούλης Στέφανος ή Χοντρονάκος - Με μιά τσαχπίνα μπλέχτηκα [Κώστα
TTITLE16=ς Ρούκουνας]
TTITLE17=Κωστή Έλενα - Μάς ζηλεύουνε [Κώστας Καπλάνης-Χρήστος Αργυρόπουλος]
TTITLE18=Γεωργακοπούλου Ιωάννα - Κάτω απ' το σβηστό φανάρι [Γιώργος Μητσάκης]
TTITLE19=Νίνου Μαρίκα - Γλυκοχαράζει ο Αυγερινός [Γιάννης Τατασσόπουλος-Νίκος 
TTITLE19=Ρούτσος]
EXTD=
EXTT0=
EXTT1=
EXTT2=
EXTT3=
EXTT4=
EXTT5=
EXTT6=
EXTT7=
EXTT8=
EXTT9=
EXTT10=
EXTT11=
EXTT12=
EXTT13=
EXTT14=
EXTT15=
EXTT16=
EXTT17=
EXTT18=
EXTT19=
PLAYORDER=
